  0
SECTION
  2
HEADER
  9
$ACADVER
  1
AC1009
  9
$INSBASE
 10
0.0
 20
0.0
 30
0.0
  9
$EXTMIN
 10
0.0
 20
0.0
 30
0.0
  9
$EXTMAX
 10
0.0
 20
0.0
 30
0.0
  0
ENDSEC
  0
SECTION
  2
TABLES
  0
TABLE
  2
VPORT
 70
0
  0
ENDTAB
  0
TABLE
  2
LTYPE
 70
1
  0
LTYPE
  2
CONTINUOUS
 70
0
  3
Solid line
 72
65
 73
0
 40
0.0
  0
ENDTAB
  0
TABLE
  2
LAYER
 70
1
  0
LAYER
  2
0
 70
64
 62
7
  6
continuous
  0
ENDTAB
  0
TABLE
  2
STYLE
 70
1
  0
STYLE
  2
STANDARD
 70
0
 40
0
 41
1.0
 50
0.0
 71
0
 42
1
 3
ARIAL.TTF
 4

  0
ENDTAB
  0
TABLE
  2
VIEW
 70
0
  0
ENDTAB
  0
ENDSEC
  0
SECTION
  2
BLOCKS
  0
BLOCK
  8
0
  2
FILLET003
 70
0
 10
0.0
 20
0.0
 30
0.0
  3
FILLET003
  0
LINE
  8
0
 62
0
 10
69.85
 20
38.1
 30
0.0
 11
69.85
 21
-38.1
 31
0.0
  0
ARC
  8
0
 62
0
 10
63.5
 20
38.1
 30
0.0
 40
6.35
 50
-0.0
 51
90.0
  0
ARC
  8
0
 62
0
 10
63.5
 20
-38.1
 30
0.0
 40
6.35
 50
-90.0
 51
-0.0
  0
LINE
  8
0
 62
0
 10
-63.5
 20
44.45
 30
0.0
 11
63.5
 21
44.45
 31
0.0
  0
LINE
  8
0
 62
0
 10
63.5
 20
-44.45
 30
0.0
 11
-63.5
 21
-44.45
 31
0.0
  0
ARC
  8
0
 62
0
 10
-63.5
 20
38.1
 30
0.0
 40
6.35
 50
90.0
 51
-180.0
  0
ARC
  8
0
 62
0
 10
-63.5
 20
-38.1
 30
0.0
 40
6.35
 50
-180.0
 51
-90.0
  0
LINE
  8
0
 62
0
 10
-69.85
 20
-38.1
 30
0.0
 11
-69.85
 21
38.1
 31
0.0
  0
CIRCLE
  8
0
 62
0
 10
63.5
 20
38.1
 30
0.0
 40
3.81
  0
CIRCLE
  8
0
 62
0
 10
-63.5
 20
-38.1
 30
0.0
 40
3.81
  0
CIRCLE
  8
0
 62
0
 10
63.5
 20
-38.1
 30
0.0
 40
3.81
  0
CIRCLE
  8
0
 62
0
 10
-63.5
 20
38.1
 30
0.0
 40
3.81
  0
LINE
  8
0
 62
0
 10
-62.5475
 20
22.86
 30
0.0
 11
-59.3725
 21
22.86
 31
0.0
  0
LINE
  8
0
 62
0
 10
-62.5475
 20
13.716
 30
0.0
 11
-62.5475
 21
22.86
 31
0.0
  0
LINE
  8
0
 62
0
 10
-59.3725
 20
22.86
 30
0.0
 11
-59.3725
 21
13.716
 31
0.0
  0
LINE
  8
0
 62
0
 10
-59.3725
 20
13.716
 30
0.0
 11
-62.5475
 21
13.716
 31
0.0
  0
LINE
  8
0
 62
0
 10
32.766
 20
30.7975
 30
0.0
 11
54.61
 21
30.7975
 31
0.0
  0
LINE
  8
0
 62
0
 10
32.766
 20
27.6225
 30
0.0
 11
32.766
 21
30.7975
 31
0.0
  0
LINE
  8
0
 62
0
 10
54.61
 20
30.7975
 30
0.0
 11
54.61
 21
27.6225
 31
0.0
  0
LINE
  8
0
 62
0
 10
54.61
 20
27.6225
 30
0.0
 11
32.766
 21
27.6225
 31
0.0
  0
LINE
  8
0
 62
0
 10
59.3725
 20
4.572
 30
0.0
 11
62.5475
 21
4.572
 31
0.0
  0
LINE
  8
0
 62
0
 10
59.3725
 20
-4.572
 30
0.0
 11
59.3725
 21
4.572
 31
0.0
  0
LINE
  8
0
 62
0
 10
62.5475
 20
4.572
 30
0.0
 11
62.5475
 21
-4.572
 31
0.0
  0
LINE
  8
0
 62
0
 10
62.5475
 20
-4.572
 30
0.0
 11
59.3725
 21
-4.572
 31
0.0
  0
LINE
  8
0
 62
0
 10
10.922
 20
-27.6225
 30
0.0
 11
10.922
 21
-30.7975
 31
0.0
  0
LINE
  8
0
 62
0
 10
-10.922
 20
-27.6225
 30
0.0
 11
10.922
 21
-27.6225
 31
0.0
  0
LINE
  8
0
 62
0
 10
10.922
 20
-30.7975
 30
0.0
 11
-10.922
 21
-30.7975
 31
0.0
  0
LINE
  8
0
 62
0
 10
-10.922
 20
-30.7975
 30
0.0
 11
-10.922
 21
-27.6225
 31
0.0
  0
LINE
  8
0
 62
0
 10
-62.5475
 20
-22.86
 30
0.0
 11
-62.5475
 21
-13.716
 31
0.0
  0
LINE
  8
0
 62
0
 10
-59.3725
 20
-22.86
 30
0.0
 11
-62.5475
 21
-22.86
 31
0.0
  0
LINE
  8
0
 62
0
 10
-62.5475
 20
-13.716
 30
0.0
 11
-59.3725
 21
-13.716
 31
0.0
  0
LINE
  8
0
 62
0
 10
-59.3725
 20
-13.716
 30
0.0
 11
-59.3725
 21
-22.86
 31
0.0
  0
LINE
  8
0
 62
0
 10
-62.5475
 20
-4.572
 30
0.0
 11
-62.5475
 21
4.572
 31
0.0
  0
LINE
  8
0
 62
0
 10
-59.3725
 20
-4.572
 30
0.0
 11
-62.5475
 21
-4.572
 31
0.0
  0
LINE
  8
0
 62
0
 10
-62.5475
 20
4.572
 30
0.0
 11
-59.3725
 21
4.572
 31
0.0
  0
LINE
  8
0
 62
0
 10
-59.3725
 20
4.572
 30
0.0
 11
-59.3725
 21
-4.572
 31
0.0
  0
LINE
  8
0
 62
0
 10
59.3725
 20
22.86
 30
0.0
 11
62.5475
 21
22.86
 31
0.0
  0
LINE
  8
0
 62
0
 10
59.3725
 20
13.716
 30
0.0
 11
59.3725
 21
22.86
 31
0.0
  0
LINE
  8
0
 62
0
 10
62.5475
 20
22.86
 30
0.0
 11
62.5475
 21
13.716
 31
0.0
  0
LINE
  8
0
 62
0
 10
62.5475
 20
13.716
 30
0.0
 11
59.3725
 21
13.716
 31
0.0
  0
LINE
  8
0
 62
0
 10
59.3725
 20
-22.86
 30
0.0
 11
59.3725
 21
-13.716
 31
0.0
  0
LINE
  8
0
 62
0
 10
62.5475
 20
-22.86
 30
0.0
 11
59.3725
 21
-22.86
 31
0.0
  0
LINE
  8
0
 62
0
 10
59.3725
 20
-13.716
 30
0.0
 11
62.5475
 21
-13.716
 31
0.0
  0
LINE
  8
0
 62
0
 10
62.5475
 20
-13.716
 30
0.0
 11
62.5475
 21
-22.86
 31
0.0
  0
LINE
  8
0
 62
0
 10
10.922
 20
27.6225
 30
0.0
 11
-10.922
 21
27.6225
 31
0.0
  0
LINE
  8
0
 62
0
 10
10.922
 20
30.7975
 30
0.0
 11
10.922
 21
27.6225
 31
0.0
  0
LINE
  8
0
 62
0
 10
-10.922
 20
27.6225
 30
0.0
 11
-10.922
 21
30.7975
 31
0.0
  0
LINE
  8
0
 62
0
 10
-10.922
 20
30.7975
 30
0.0
 11
10.922
 21
30.7975
 31
0.0
  0
LINE
  8
0
 62
0
 10
-32.766
 20
-27.6225
 30
0.0
 11
-32.766
 21
-30.7975
 31
0.0
  0
LINE
  8
0
 62
0
 10
-54.61
 20
-27.6225
 30
0.0
 11
-32.766
 21
-27.6225
 31
0.0
  0
LINE
  8
0
 62
0
 10
-32.766
 20
-30.7975
 30
0.0
 11
-54.61
 21
-30.7975
 31
0.0
  0
LINE
  8
0
 62
0
 10
-54.61
 20
-30.7975
 30
0.0
 11
-54.61
 21
-27.6225
 31
0.0
  0
LINE
  8
0
 62
0
 10
54.61
 20
-27.6225
 30
0.0
 11
54.61
 21
-30.7975
 31
0.0
  0
LINE
  8
0
 62
0
 10
32.766
 20
-27.6225
 30
0.0
 11
54.61
 21
-27.6225
 31
0.0
  0
LINE
  8
0
 62
0
 10
54.61
 20
-30.7975
 30
0.0
 11
32.766
 21
-30.7975
 31
0.0
  0
LINE
  8
0
 62
0
 10
32.766
 20
-30.7975
 30
0.0
 11
32.766
 21
-27.6225
 31
0.0
  0
LINE
  8
0
 62
0
 10
-32.766
 20
27.6225
 30
0.0
 11
-54.61
 21
27.6225
 31
0.0
  0
LINE
  8
0
 62
0
 10
-32.766
 20
30.7975
 30
0.0
 11
-32.766
 21
27.6225
 31
0.0
  0
LINE
  8
0
 62
0
 10
-54.61
 20
27.6225
 30
0.0
 11
-54.61
 21
30.7975
 31
0.0
  0
LINE
  8
0
 62
0
 10
-54.61
 20
30.7975
 30
0.0
 11
-32.766
 21
30.7975
 31
0.0
  0
CIRCLE
  8
0
 62
0
 10
60.96
 20
29.21
 30
0.0
 40
1.9812
  0
CIRCLE
  8
0
 62
0
 10
-60.96
 20
29.21
 30
0.0
 40
1.9812
  0
CIRCLE
  8
0
 62
0
 10
60.96
 20
-29.21
 30
0.0
 40
1.9812
  0
CIRCLE
  8
0
 62
0
 10
-60.96
 20
-29.21
 30
0.0
 40
1.9812
  0
CIRCLE
  8
0
 62
0
 10
35.56
 20
24.13
 30
0.0
 40
1.9812
  0
CIRCLE
  8
0
 62
0
 10
-39.37
 20
24.13
 30
0.0
 40
1.9812
  0
CIRCLE
  8
0
 62
0
 10
-40.64
 20
-24.13
 30
0.0
 40
1.9812
  0
CIRCLE
  8
0
 62
0
 10
41.91
 20
-24.13
 30
0.0
 40
1.9812
  0
LINE
  8
0
 62
0
 10
-31.75
 20
-20.32
 30
0.0
 11
-31.75
 21
-7.62
 31
0.0
  0
LINE
  8
0
 62
0
 10
-28.575
 20
-20.32
 30
0.0
 11
-31.75
 21
-20.32
 31
0.0
  0
LINE
  8
0
 62
0
 10
-28.575
 20
-7.62
 30
0.0
 11
-28.575
 21
-20.32
 31
0.0
  0
LINE
  8
0
 62
0
 10
-31.75
 20
-7.62
 30
0.0
 11
-28.575
 21
-7.62
 31
0.0
  0
LINE
  8
0
 62
0
 10
33.9725
 20
20.32
 30
0.0
 11
37.1475
 21
20.32
 31
0.0
  0
LINE
  8
0
 62
0
 10
33.9725
 20
7.62
 30
0.0
 11
33.9725
 21
20.32
 31
0.0
  0
LINE
  8
0
 62
0
 10
37.1475
 20
7.62
 30
0.0
 11
33.9725
 21
7.62
 31
0.0
  0
LINE
  8
0
 62
0
 10
37.1475
 20
20.32
 30
0.0
 11
37.1475
 21
7.62
 31
0.0
  0
LINE
  8
0
 62
0
 10
33.9725
 20
-20.32
 30
0.0
 11
33.9725
 21
-7.62
 31
0.0
  0
LINE
  8
0
 62
0
 10
37.1475
 20
-20.32
 30
0.0
 11
33.9725
 21
-20.32
 31
0.0
  0
LINE
  8
0
 62
0
 10
37.1475
 20
-7.62
 30
0.0
 11
37.1475
 21
-20.32
 31
0.0
  0
LINE
  8
0
 62
0
 10
33.9725
 20
-7.62
 30
0.0
 11
37.1475
 21
-7.62
 31
0.0
  0
LINE
  8
0
 62
0
 10
-28.575
 20
7.62
 30
0.0
 11
-31.75
 21
7.62
 31
0.0
  0
LINE
  8
0
 62
0
 10
-28.575
 20
20.32
 30
0.0
 11
-28.575
 21
7.62
 31
0.0
  0
LINE
  8
0
 62
0
 10
-31.75
 20
20.32
 30
0.0
 11
-28.575
 21
20.32
 31
0.0
  0
LINE
  8
0
 62
0
 10
-31.75
 20
7.62
 30
0.0
 11
-31.75
 21
20.32
 31
0.0
  0
ENDBLK
  0
ENDSEC
  0
SECTION
  2
ENTITIES
  0
INSERT
  2
FILLET003
  8
0
 10
0.0
 20
0.0
 30
0.0
  0
ENDSEC
  0
EOF
