  0
SECTION
  2
HEADER
  9
$ACADVER
  1
AC1009
  9
$INSBASE
 10
0.0
 20
0.0
 30
0.0
  9
$EXTMIN
 10
0.0
 20
0.0
 30
0.0
  9
$EXTMAX
 10
0.0
 20
0.0
 30
0.0
  0
ENDSEC
  0
SECTION
  2
TABLES
  0
TABLE
  2
VPORT
 70
0
  0
ENDTAB
  0
TABLE
  2
LTYPE
 70
1
  0
LTYPE
  2
CONTINUOUS
 70
0
  3
Solid line
 72
65
 73
0
 40
0.0
  0
ENDTAB
  0
TABLE
  2
LAYER
 70
1
  0
LAYER
  2
0
 70
64
 62
7
  6
continuous
  0
ENDTAB
  0
TABLE
  2
STYLE
 70
1
  0
STYLE
  2
STANDARD
 70
0
 40
0
 41
1.0
 50
0.0
 71
0
 42
1
 3
ARIAL.TTF
 4

  0
ENDTAB
  0
TABLE
  2
VIEW
 70
0
  0
ENDTAB
  0
ENDSEC
  0
SECTION
  2
BLOCKS
  0
BLOCK
  8
0
  2
FILLET011
 70
0
 10
0.0
 20
0.0
 30
0.0
  3
FILLET011
  0
LINE
  8
0
 62
0
 10
59.055
 20
-4.76
 30
0.0
 11
59.055
 21
4.76
 31
0.0
  0
ARC
  8
0
 62
0
 10
60.645
 20
-4.76
 30
0.0
 40
1.59
 50
-180.0
 51
-90.0
  0
ARC
  8
0
 62
0
 10
60.645
 20
4.76
 30
0.0
 40
1.59
 50
90.0
 51
-180.0
  0
LINE
  8
0
 62
0
 10
62.87
 20
-6.35
 30
0.0
 11
60.645
 21
-6.35
 31
0.0
  0
LINE
  8
0
 62
0
 10
60.645
 20
6.35
 30
0.0
 11
62.87
 21
6.35
 31
0.0
  0
ARC
  8
0
 62
0
 10
62.87
 20
-9.52
 30
0.0
 40
3.17
 50
0.0
 51
90.0
  0
ARC
  8
0
 62
0
 10
62.87
 20
9.52
 30
0.0
 40
3.17
 50
-90.0
 51
0.0
  0
LINE
  8
0
 62
0
 10
66.04
 20
-9.52
 30
0.0
 11
66.04
 21
-31.12
 31
0.0
  0
LINE
  8
0
 62
0
 10
66.04
 20
31.12
 30
0.0
 11
66.04
 21
9.52
 31
0.0
  0
ARC
  8
0
 62
0
 10
62.87
 20
-31.12
 30
0.0
 40
3.17
 50
-90.0
 51
-0.0
  0
ARC
  8
0
 62
0
 10
62.87
 20
31.12
 30
0.0
 40
3.17
 50
0.0
 51
90.0
  0
LINE
  8
0
 62
0
 10
62.87
 20
-34.29
 30
0.0
 11
-62.87
 21
-34.29
 31
0.0
  0
LINE
  8
0
 62
0
 10
-62.87
 20
34.29
 30
0.0
 11
62.87
 21
34.29
 31
0.0
  0
ARC
  8
0
 62
0
 10
-62.87
 20
-31.12
 30
0.0
 40
3.17
 50
-180.0
 51
-90.0
  0
ARC
  8
0
 62
0
 10
-62.87
 20
31.12
 30
0.0
 40
3.17
 50
90.0
 51
-180.0
  0
LINE
  8
0
 62
0
 10
-66.04
 20
-31.12
 30
0.0
 11
-66.04
 21
31.12
 31
0.0
  0
LINE
  8
0
 62
0
 10
52.71
 20
-24.13
 30
0.0
 11
-52.71
 21
-24.13
 31
0.0
  0
ARC
  8
0
 62
0
 10
-52.71
 20
-20.96
 30
0.0
 40
3.17
 50
-180.0
 51
-90.0
  0
ARC
  8
0
 62
0
 10
52.71
 20
-20.96
 30
0.0
 40
3.17
 50
-90.0
 51
-0.0
  0
LINE
  8
0
 62
0
 10
-55.88
 20
-20.96
 30
0.0
 11
-55.88
 21
20.96
 31
0.0
  0
LINE
  8
0
 62
0
 10
55.88
 20
20.96
 30
0.0
 11
55.88
 21
-20.96
 31
0.0
  0
ARC
  8
0
 62
0
 10
-52.71
 20
20.96
 30
0.0
 40
3.17
 50
90.0
 51
-180.0
  0
ARC
  8
0
 62
0
 10
52.71
 20
20.96
 30
0.0
 40
3.17
 50
0.0
 51
90.0
  0
LINE
  8
0
 62
0
 10
-52.71
 20
24.13
 30
0.0
 11
52.71
 21
24.13
 31
0.0
  0
LINE
  8
0
 62
0
 10
-62.5475
 20
-13.716
 30
0.0
 11
-59.3725
 21
-13.716
 31
0.0
  0
LINE
  8
0
 62
0
 10
-62.5475
 20
-22.86
 30
0.0
 11
-62.5475
 21
-13.716
 31
0.0
  0
LINE
  8
0
 62
0
 10
-59.3725
 20
-13.716
 30
0.0
 11
-59.3725
 21
-22.86
 31
0.0
  0
LINE
  8
0
 62
0
 10
-59.3725
 20
-22.86
 30
0.0
 11
-62.5475
 21
-22.86
 31
0.0
  0
LINE
  8
0
 62
0
 10
32.766
 20
-27.6225
 30
0.0
 11
54.61
 21
-27.6225
 31
0.0
  0
LINE
  8
0
 62
0
 10
32.766
 20
-30.7975
 30
0.0
 11
32.766
 21
-27.6225
 31
0.0
  0
LINE
  8
0
 62
0
 10
54.61
 20
-27.6225
 30
0.0
 11
54.61
 21
-30.7975
 31
0.0
  0
LINE
  8
0
 62
0
 10
54.61
 20
-30.7975
 30
0.0
 11
32.766
 21
-30.7975
 31
0.0
  0
LINE
  8
0
 62
0
 10
-62.5475
 20
-4.572
 30
0.0
 11
-62.5475
 21
4.572
 31
0.0
  0
LINE
  8
0
 62
0
 10
-59.3725
 20
-4.572
 30
0.0
 11
-62.5475
 21
-4.572
 31
0.0
  0
LINE
  8
0
 62
0
 10
-62.5475
 20
4.572
 30
0.0
 11
-59.3725
 21
4.572
 31
0.0
  0
LINE
  8
0
 62
0
 10
-59.3725
 20
4.572
 30
0.0
 11
-59.3725
 21
-4.572
 31
0.0
  0
LINE
  8
0
 62
0
 10
-62.5475
 20
13.716
 30
0.0
 11
-62.5475
 21
22.86
 31
0.0
  0
LINE
  8
0
 62
0
 10
-59.3725
 20
13.716
 30
0.0
 11
-62.5475
 21
13.716
 31
0.0
  0
LINE
  8
0
 62
0
 10
-62.5475
 20
22.86
 30
0.0
 11
-59.3725
 21
22.86
 31
0.0
  0
LINE
  8
0
 62
0
 10
-59.3725
 20
22.86
 30
0.0
 11
-59.3725
 21
13.716
 31
0.0
  0
LINE
  8
0
 62
0
 10
10.922
 20
-30.7975
 30
0.0
 11
-10.922
 21
-30.7975
 31
0.0
  0
LINE
  8
0
 62
0
 10
10.922
 20
-27.6225
 30
0.0
 11
10.922
 21
-30.7975
 31
0.0
  0
LINE
  8
0
 62
0
 10
-10.922
 20
-30.7975
 30
0.0
 11
-10.922
 21
-27.6225
 31
0.0
  0
LINE
  8
0
 62
0
 10
-10.922
 20
-27.6225
 30
0.0
 11
10.922
 21
-27.6225
 31
0.0
  0
LINE
  8
0
 62
0
 10
59.3725
 20
22.86
 30
0.0
 11
62.5475
 21
22.86
 31
0.0
  0
LINE
  8
0
 62
0
 10
59.3725
 20
13.716
 30
0.0
 11
59.3725
 21
22.86
 31
0.0
  0
LINE
  8
0
 62
0
 10
62.5475
 20
22.86
 30
0.0
 11
62.5475
 21
13.716
 31
0.0
  0
LINE
  8
0
 62
0
 10
62.5475
 20
13.716
 30
0.0
 11
59.3725
 21
13.716
 31
0.0
  0
LINE
  8
0
 62
0
 10
59.3725
 20
-22.86
 30
0.0
 11
59.3725
 21
-13.716
 31
0.0
  0
LINE
  8
0
 62
0
 10
62.5475
 20
-22.86
 30
0.0
 11
59.3725
 21
-22.86
 31
0.0
  0
LINE
  8
0
 62
0
 10
59.3725
 20
-13.716
 30
0.0
 11
62.5475
 21
-13.716
 31
0.0
  0
LINE
  8
0
 62
0
 10
62.5475
 20
-13.716
 30
0.0
 11
62.5475
 21
-22.86
 31
0.0
  0
LINE
  8
0
 62
0
 10
10.922
 20
30.7975
 30
0.0
 11
10.922
 21
27.6225
 31
0.0
  0
LINE
  8
0
 62
0
 10
-10.922
 20
30.7975
 30
0.0
 11
10.922
 21
30.7975
 31
0.0
  0
LINE
  8
0
 62
0
 10
10.922
 20
27.6225
 30
0.0
 11
-10.922
 21
27.6225
 31
0.0
  0
LINE
  8
0
 62
0
 10
-10.922
 20
27.6225
 30
0.0
 11
-10.922
 21
30.7975
 31
0.0
  0
LINE
  8
0
 62
0
 10
-32.766
 20
27.6225
 30
0.0
 11
-54.61
 21
27.6225
 31
0.0
  0
LINE
  8
0
 62
0
 10
-32.766
 20
30.7975
 30
0.0
 11
-32.766
 21
27.6225
 31
0.0
  0
LINE
  8
0
 62
0
 10
-54.61
 20
27.6225
 30
0.0
 11
-54.61
 21
30.7975
 31
0.0
  0
LINE
  8
0
 62
0
 10
-54.61
 20
30.7975
 30
0.0
 11
-32.766
 21
30.7975
 31
0.0
  0
LINE
  8
0
 62
0
 10
54.61
 20
30.7975
 30
0.0
 11
54.61
 21
27.6225
 31
0.0
  0
LINE
  8
0
 62
0
 10
32.766
 20
30.7975
 30
0.0
 11
54.61
 21
30.7975
 31
0.0
  0
LINE
  8
0
 62
0
 10
54.61
 20
27.6225
 30
0.0
 11
32.766
 21
27.6225
 31
0.0
  0
LINE
  8
0
 62
0
 10
32.766
 20
27.6225
 30
0.0
 11
32.766
 21
30.7975
 31
0.0
  0
LINE
  8
0
 62
0
 10
-32.766
 20
-27.6225
 30
0.0
 11
-54.61
 21
-27.6225
 31
0.0
  0
LINE
  8
0
 62
0
 10
-32.766
 20
-30.7975
 30
0.0
 11
-32.766
 21
-27.6225
 31
0.0
  0
LINE
  8
0
 62
0
 10
-54.61
 20
-27.6225
 30
0.0
 11
-54.61
 21
-30.7975
 31
0.0
  0
LINE
  8
0
 62
0
 10
-54.61
 20
-30.7975
 30
0.0
 11
-32.766
 21
-30.7975
 31
0.0
  0
CIRCLE
  8
0
 62
0
 10
60.96
 20
-29.21
 30
0.0
 40
1.397
  0
CIRCLE
  8
0
 62
0
 10
-60.96
 20
29.21
 30
0.0
 40
1.397
  0
CIRCLE
  8
0
 62
0
 10
-60.96
 20
-29.21
 30
0.0
 40
1.397
  0
CIRCLE
  8
0
 62
0
 10
60.96
 20
29.21
 30
0.0
 40
1.397
  0
ENDBLK
  0
ENDSEC
  0
SECTION
  2
ENTITIES
  0
INSERT
  2
FILLET011
  8
0
 10
0.0
 20
0.0
 30
0.0
  0
ENDSEC
  0
EOF
