  0
SECTION
  2
HEADER
  9
$ACADVER
  1
AC1009
  9
$INSBASE
 10
0.0
 20
0.0
 30
0.0
  9
$EXTMIN
 10
0.0
 20
0.0
 30
0.0
  9
$EXTMAX
 10
0.0
 20
0.0
 30
0.0
  0
ENDSEC
  0
SECTION
  2
TABLES
  0
TABLE
  2
VPORT
 70
0
  0
ENDTAB
  0
TABLE
  2
LTYPE
 70
1
  0
LTYPE
  2
CONTINUOUS
 70
0
  3
Solid line
 72
65
 73
0
 40
0.0
  0
ENDTAB
  0
TABLE
  2
LAYER
 70
1
  0
LAYER
  2
0
 70
64
 62
7
  6
continuous
  0
ENDTAB
  0
TABLE
  2
STYLE
 70
1
  0
STYLE
  2
STANDARD
 70
0
 40
0
 41
1.0
 50
0.0
 71
0
 42
1
 3
ARIAL.TTF
 4

  0
ENDTAB
  0
TABLE
  2
VIEW
 70
0
  0
ENDTAB
  0
ENDSEC
  0
SECTION
  2
BLOCKS
  0
BLOCK
  8
0
  2
POCKET002
 70
0
 10
0.0
 20
0.0
 30
0.0
  3
POCKET002
  0
LINE
  8
0
 62
0
 10
-22.86
 20
19.05
 30
0.0
 11
-13.716
 21
19.05
 31
0.0
  0
LINE
  8
0
 62
0
 10
-13.716
 20
15.875
 30
0.0
 11
-13.716
 21
19.05
 31
0.0
  0
LINE
  8
0
 62
0
 10
-6.35
 20
15.875
 30
0.0
 11
-13.716
 21
15.875
 31
0.0
  0
LINE
  8
0
 62
0
 10
-6.35
 20
11.557
 30
0.0
 11
-6.35
 21
15.875
 31
0.0
  0
ARC
  8
0
 62
0
 10
0.0
 20
11.557
 30
0.0
 40
6.35
 50
180.0
 51
0.0
  0
LINE
  8
0
 62
0
 10
6.35
 20
15.875
 30
0.0
 11
6.35
 21
11.557
 31
0.0
  0
LINE
  8
0
 62
0
 10
13.716
 20
15.875
 30
0.0
 11
6.35
 21
15.875
 31
0.0
  0
LINE
  8
0
 62
0
 10
13.716
 20
19.05
 30
0.0
 11
13.716
 21
15.875
 31
0.0
  0
LINE
  8
0
 62
0
 10
13.716
 20
19.05
 30
0.0
 11
22.86
 21
19.05
 31
0.0
  0
LINE
  8
0
 62
0
 10
22.86
 20
15.875
 30
0.0
 11
22.86
 21
19.05
 31
0.0
  0
LINE
  8
0
 62
0
 10
26.416
 20
15.875
 30
0.0
 11
22.86
 21
15.875
 31
0.0
  0
LINE
  8
0
 62
0
 10
26.416
 20
15.875
 30
0.0
 11
26.416
 21
-15.875
 31
0.0
  0
LINE
  8
0
 62
0
 10
22.86
 20
-15.875
 30
0.0
 11
26.416
 21
-15.875
 31
0.0
  0
LINE
  8
0
 62
0
 10
22.86
 20
-19.05
 30
0.0
 11
22.86
 21
-15.875
 31
0.0
  0
LINE
  8
0
 62
0
 10
22.86
 20
-19.05
 30
0.0
 11
13.716
 21
-19.05
 31
0.0
  0
LINE
  8
0
 62
0
 10
13.716
 20
-15.875
 30
0.0
 11
13.716
 21
-19.05
 31
0.0
  0
LINE
  8
0
 62
0
 10
4.572
 20
-15.875
 30
0.0
 11
13.716
 21
-15.875
 31
0.0
  0
LINE
  8
0
 62
0
 10
4.572
 20
-19.05
 30
0.0
 11
4.572
 21
-15.875
 31
0.0
  0
LINE
  8
0
 62
0
 10
4.572
 20
-19.05
 30
0.0
 11
-4.572
 21
-19.05
 31
0.0
  0
LINE
  8
0
 62
0
 10
-4.572
 20
-15.875
 30
0.0
 11
-4.572
 21
-19.05
 31
0.0
  0
LINE
  8
0
 62
0
 10
-13.716
 20
-15.875
 30
0.0
 11
-4.572
 21
-15.875
 31
0.0
  0
LINE
  8
0
 62
0
 10
-13.716
 20
-19.05
 30
0.0
 11
-13.716
 21
-15.875
 31
0.0
  0
LINE
  8
0
 62
0
 10
-13.716
 20
-19.05
 30
0.0
 11
-22.86
 21
-19.05
 31
0.0
  0
LINE
  8
0
 62
0
 10
-22.86
 20
-15.875
 30
0.0
 11
-22.86
 21
-19.05
 31
0.0
  0
LINE
  8
0
 62
0
 10
-26.416
 20
-15.875
 30
0.0
 11
-22.86
 21
-15.875
 31
0.0
  0
LINE
  8
0
 62
0
 10
-26.416
 20
-15.875
 30
0.0
 11
-26.416
 21
15.875
 31
0.0
  0
LINE
  8
0
 62
0
 10
-22.86
 20
15.875
 30
0.0
 11
-26.416
 21
15.875
 31
0.0
  0
LINE
  8
0
 62
0
 10
-22.86
 20
19.05
 30
0.0
 11
-22.86
 21
15.875
 31
0.0
  0
ENDBLK
  0
ENDSEC
  0
SECTION
  2
ENTITIES
  0
INSERT
  2
POCKET002
  8
0
 10
0.0
 20
0.0
 30
0.0
  0
ENDSEC
  0
EOF
